<svg width="60" height="60" viewBox="0 0 60 60" fill="#dd7230" xmlns="http://www.w3.org/2000/svg">
<path d="M34.3248 8.77498L38.7248 17.575C39.3248 18.8 40.9248 19.975 42.2748 20.2L50.2498 21.525C55.3498 22.375 56.5498 26.075 52.8748 29.725L46.6748 35.925C45.6248 36.975 45.0498 39 45.3748 40.45L47.1498 48.125C48.5498 54.2 45.3248 56.55 39.9498 53.375L32.4748 48.95C31.1248 48.15 28.8998 48.15 27.5248 48.95L20.0498 53.375C14.6998 56.55 11.4498 54.175 12.8498 48.125L14.6248 40.45C14.9498 39 14.3748 36.975 13.3248 35.925L7.12477 29.725C3.47477 26.075 4.64977 22.375 9.74977 21.525L17.7248 20.2C19.0498 19.975 20.6498 18.8 21.2498 17.575L25.6498 8.77498C28.0498 3.99998 31.9498 3.99998 34.3248 8.77498Z" stroke="#292D32" stroke-width="1.5" stroke-linecap="round" stroke-linejoin="round"/>
</svg>
